<svg id="Layer_1" height="512" viewBox="0 0 512 512" width="512" xmlns="http://www.w3.org/2000/svg" data-name="Layer 1"><path d="m429.54 38.57a40.975 40.975 0 1 1 0 81.95h-7.24v-45.63a63.559 63.559 0 0 0 -11.32-36.32z" fill="#4a5160"/><path d="m406.58 246.64h-108.45a41.963 41.963 0 0 0 -41.96 41.95v115.43h192.36v-115.43a41.954 41.954 0 0 0 -41.95-41.95z" fill="#f3ce7d"/><path d="m422.3 120.52v30.76a63.891 63.891 0 0 1 -63.89 63.89h-12.12a63.9 63.9 0 0 1 -63.89-63.89v-54.6h15.24a119.161 119.161 0 0 0 84.58-35.21s12.81 36.15 34.11 36.15a20.042 20.042 0 0 0 5.97-.94z" fill="#ffd8b7"/><path d="m410.98 38.57a63.559 63.559 0 0 1 11.32 36.32v21.79a20.042 20.042 0 0 1 -5.97.94c-21.3 0-34.11-36.15-34.11-36.15a119.161 119.161 0 0 1 -84.58 35.21h-15.24v-21.79a63.891 63.891 0 0 1 63.89-63.89h12.12a63.805 63.805 0 0 1 52.57 27.57z" fill="#6d7486"/><path d="m213.87 293.66h-130.44a41.954 41.954 0 0 0 -41.95 41.95v133.43h214.35v-133.43a41.963 41.963 0 0 0 -41.96-41.95z" fill="#80aaff"/><path d="m226.6 107.78v79.62a71.193 71.193 0 0 1 -71.19 71.19h-13.51a71.186 71.186 0 0 1 -71.19-71.19v-77.37l50.83-7.12a53.916 53.916 0 0 1 36.75 8.13 53.91 53.91 0 0 0 48.05 5.28z" fill="#ffd8b7"/><path d="m226.6 99.09v8.69l-20.26 8.54a53.91 53.91 0 0 1 -48.05-5.28 53.916 53.916 0 0 0 -36.75-8.13l-50.83 7.12v-66.07h100.76a55.14 55.14 0 0 1 55.13 55.13z" fill="#6d7486"/><path d="m396.92 361.64h-37.92l-.09 83.62 19.05-14.74 19.05 14.74z" fill="#6c63b5"/><path d="m206.92 417.38h-37.92l-.09 83.62 19.05-14.73 19.05 14.73z" fill="#6c63b5"/><path d="m417.59 332.11a6.643 6.643 0 0 1 0 7.33l-2.68 4.07a6.607 6.607 0 0 0 -1.09 4.03l.27 4.92a6.631 6.631 0 0 1 -3.64 6.3l-4.36 2.21a6.635 6.635 0 0 0 -2.94 2.94l-2.21 4.36a6.611 6.611 0 0 1 -4.02 3.37 6.7 6.7 0 0 1 -2.28.27l-4.92-.27a6.607 6.607 0 0 0 -4.03 1.09l-4.07 2.68a6.643 6.643 0 0 1 -7.33 0l-4.06-2.68a6.625 6.625 0 0 0 -4.03-1.09l-4.92.27a6.7 6.7 0 0 1 -2.28-.27 6.6 6.6 0 0 1 -4.03-3.37l-2.2-4.36a6.635 6.635 0 0 0 -2.94-2.94l-4.36-2.21a6.656 6.656 0 0 1 -3.65-6.3l.27-4.92a6.666 6.666 0 0 0 -1.08-4.03l-2.69-4.07a6.681 6.681 0 0 1 0-7.33l2.69-4.06a6.7 6.7 0 0 0 1.08-4.03l-.27-4.92a6.671 6.671 0 0 1 3.65-6.31l4.36-2.2a6.635 6.635 0 0 0 2.94-2.94l2.2-4.36a6.671 6.671 0 0 1 6.31-3.65l4.92.27a6.685 6.685 0 0 0 4.03-1.08l4.06-2.69a6.681 6.681 0 0 1 7.33 0l4.07 2.69a6.666 6.666 0 0 0 4.03 1.08l4.92-.27a6.656 6.656 0 0 1 6.3 3.65l2.21 4.36a6.635 6.635 0 0 0 2.94 2.94l4.36 2.2a6.646 6.646 0 0 1 3.64 6.31l-.27 4.92a6.643 6.643 0 0 0 1.09 4.03z" fill="#eb7288"/><path d="m227.59 387.86a6.626 6.626 0 0 1 0 7.32l-2.68 4.07a6.693 6.693 0 0 0 -1.09 4.03l.27 4.92a6.655 6.655 0 0 1 -3.64 6.31l-4.36 2.2a6.635 6.635 0 0 0 -2.94 2.94l-2.2 4.36a6.661 6.661 0 0 1 -6.31 3.64l-4.92-.27a6.693 6.693 0 0 0 -4.03 1.09l-4.07 2.68a6.626 6.626 0 0 1 -7.32 0l-4.07-2.68a6.693 6.693 0 0 0 -4.03-1.09l-4.92.27a6.7 6.7 0 0 1 -2.28-.27 6.6 6.6 0 0 1 -4.03-3.37l-2.2-4.36a6.635 6.635 0 0 0 -2.94-2.94l-4.36-2.2a6.655 6.655 0 0 1 -3.64-6.31l.27-4.92a6.693 6.693 0 0 0 -1.09-4.03l-2.68-4.07a6.626 6.626 0 0 1 0-7.32l2.68-4.07a6.693 6.693 0 0 0 1.09-4.03l-.27-4.92a6.646 6.646 0 0 1 3.64-6.31l4.36-2.2a6.635 6.635 0 0 0 2.94-2.94l2.2-4.36a6.646 6.646 0 0 1 6.31-3.64l4.92.27a6.763 6.763 0 0 0 4.03-1.09l4.07-2.68a6.626 6.626 0 0 1 7.32 0l4.07 2.68a6.763 6.763 0 0 0 4.03 1.09l4.92-.27a6.655 6.655 0 0 1 6.31 3.64l2.2 4.36a6.635 6.635 0 0 0 2.94 2.94l4.36 2.2a6.646 6.646 0 0 1 3.64 6.31l-.27 4.92a6.693 6.693 0 0 0 1.09 4.03z" fill="#eb7288"/><path d="m396.65 330.45-9.34 9.11 2.2 12.87-11.55-6.08-11.56 6.08 2.21-12.87-9.35-9.11 12.92-1.88 5.78-11.7 5.78 11.7z" fill="#f2cd7d"/><path d="m206.66 386.19-9.35 9.11 2.2 12.87-11.55-6.07-11.55 6.07 2.2-12.87-9.35-9.11 12.92-1.87 5.78-11.71 5.78 11.71z" fill="#f2cd7d"/><path d="m113.43 293.66h-30a41.954 41.954 0 0 0 -41.95 41.95v133.43h30v-133.43a41.954 41.954 0 0 1 41.95-41.95z" fill="#6d94cc"/><path d="m141.9 258.59h13.51a71.9 71.9 0 0 0 8.244-.49 71.185 71.185 0 0 1 -62.944-70.7v-81.572l-30 4.2v77.372a71.186 71.186 0 0 0 71.19 71.19z" fill="#e8bfa0"/><path d="m100.71 43.96h-30v66.07l30-4.202z" fill="#5b6272"/><g fill="#284268"><path d="m141.9 264.588h13.507a77.278 77.278 0 0 0 77.193-77.188v-88.3a61.2 61.2 0 0 0 -61.132-61.132h-100.76a6 6 0 0 0 -6 6v143.432a77.278 77.278 0 0 0 77.192 77.188zm-65.192-214.625h94.757a49.187 49.187 0 0 1 49.135 49.137v5.527l-16.347 6.069a48.129 48.129 0 0 1 -42.7-4.688 59.913 59.913 0 0 0 -40.848-9.03l-44 6.159zm0 65.286 45.66-6.392a47.924 47.924 0 0 1 32.666 7.221 60.157 60.157 0 0 0 53.393 5.863l12.17-4.518v69.977a65.264 65.264 0 0 1 -65.191 65.19h-13.506a65.265 65.265 0 0 1 -65.192-65.19z"/><path d="m207.518 380.256-9.8-1.424-4.381-8.877a6 6 0 0 0 -10.76 0l-4.382 8.877-9.8 1.424a6 6 0 0 0 -3.325 10.234l7.09 6.91-1.674 9.756a6 6 0 0 0 8.705 6.326l8.763-4.607 8.762 4.607a6 6 0 0 0 8.706-6.325l-1.674-9.757 7.089-6.91a6 6 0 0 0 -3.325-10.234zm-14.4 10.753a6 6 0 0 0 -1.726 5.31l.151.884-.793-.417a6 6 0 0 0 -5.584 0l-.793.417.151-.883a6 6 0 0 0 -1.726-5.311l-.642-.627.887-.129a6 6 0 0 0 4.518-3.282l.4-.8.4.8a6 6 0 0 0 4.518 3.282l.888.13z"/><path d="m346.29 221.167h12.122a69.965 69.965 0 0 0 69.888-69.886v-24.761h1.246a46.977 46.977 0 1 0 0-93.953h-15.568a69.806 69.806 0 0 0 -55.566-27.567h-12.122a69.965 69.965 0 0 0 -69.89 69.886v76.4a69.965 69.965 0 0 0 69.89 69.881zm83.254-176.6a34.977 34.977 0 1 1 0 69.953h-1.244v-39.634a69.476 69.476 0 0 0 -6.926-30.319zm-141.144 30.319a57.951 57.951 0 0 1 57.89-57.886h12.122a57.951 57.951 0 0 1 57.888 57.886v16.693c-16.56-.228-28.3-31.773-28.42-32.116a6 6 0 0 0 -9.914-2.223 113.928 113.928 0 0 1 -80.327 33.445h-9.239zm0 27.8h9.233a126.128 126.128 0 0 0 82.429-30.977c5.643 11.786 17.951 31.953 36.105 31.952h.127v47.626a57.951 57.951 0 0 1 -57.886 57.886h-12.118a57.952 57.952 0 0 1 -57.89-57.892z"/><path d="m397.516 324.514-9.8-1.424-4.382-8.877a6 6 0 0 0 -10.76 0l-4.374 8.877-9.8 1.424a6 6 0 0 0 -3.325 10.234l7.089 6.91-1.674 9.757a6 6 0 0 0 8.706 6.325l8.762-4.607 8.762 4.607a6 6 0 0 0 8.706-6.325l-1.674-9.757 7.089-6.91a6 6 0 0 0 -3.325-10.234zm-14.4 10.753a6 6 0 0 0 -1.726 5.31l.151.884-.793-.418a6 6 0 0 0 -5.584 0l-.793.418.151-.884a6 6 0 0 0 -1.726-5.31l-.641-.626.886-.129a6 6 0 0 0 4.518-3.283l.4-.8.4.8a6 6 0 0 0 4.518 3.283l.886.129z"/><path d="m41.479 475.038h121.432v25.962a6 6 0 0 0 9.671 4.746l15.378-11.894 15.377 11.894a6 6 0 0 0 9.671-4.746v-25.962h42.818a6 6 0 0 0 6-6v-59.015h91.084v35.235a6 6 0 0 0 9.671 4.742l15.377-11.9 15.377 11.9a6 6 0 0 0 9.671-4.746v-35.231h45.522a6 6 0 0 0 6-6v-115.429a48.006 48.006 0 0 0 -47.952-47.951h-108.451a48.006 48.006 0 0 0 -47.951 47.951v15.743a47.845 47.845 0 0 0 -36.3-16.674h-130.443a48.006 48.006 0 0 0 -47.952 47.952v133.423a6 6 0 0 0 6 6zm349.527-42.007-9.377-7.253a6 6 0 0 0 -7.342 0l-9.377 7.253v-55.311l1.617-.089a.692.692 0 0 1 .4.108l4.067 2.682a12.647 12.647 0 0 0 13.934 0l4.068-2.682a.7.7 0 0 1 .4-.108l1.617.09zm6.786-71.83-2.2 4.36a.671.671 0 0 1 -.621.36l-4.918-.271a12.73 12.73 0 0 0 -7.664 2.071l-4.069 2.679a.655.655 0 0 1 -.723 0l-4.066-2.68a12.748 12.748 0 0 0 -6.982-2.091c-.227 0-.455.006-.682.019l-4.918.27a.626.626 0 0 1 -.622-.359l-2.2-4.359a12.578 12.578 0 0 0 -5.591-5.591l-4.359-2.2a.658.658 0 0 1 -.36-.623l.27-4.918a12.735 12.735 0 0 0 -2.07-7.663l-2.682-4.068a.654.654 0 0 1 0-.722l2.683-4.067a12.74 12.74 0 0 0 2.069-7.662l-.27-4.919a.657.657 0 0 1 .36-.622l4.359-2.2a12.574 12.574 0 0 0 5.59-5.59l2.2-4.36a.652.652 0 0 1 .621-.36l4.92.272a12.764 12.764 0 0 0 7.661-2.072l4.068-2.681a.652.652 0 0 1 .722 0l4.068 2.682a12.714 12.714 0 0 0 7.662 2.07l4.918-.271a.66.66 0 0 1 .622.36l2.2 4.359a12.571 12.571 0 0 0 5.59 5.591l4.36 2.2a.658.658 0 0 1 .359.622l-.27 4.918a12.735 12.735 0 0 0 2.07 7.663l2.682 4.067a.655.655 0 0 1 0 .723l-2.683 4.068a12.735 12.735 0 0 0 -2.069 7.661l.27 4.92a.655.655 0 0 1 -.36.621l-4.359 2.2a12.574 12.574 0 0 0 -5.586 5.592zm-135.618-72.607a35.992 35.992 0 0 1 35.951-35.951h108.451a35.993 35.993 0 0 1 35.952 35.951v109.429h-39.522v-22.964a12.6 12.6 0 0 0 3.294-4.087l2.2-4.361a.659.659 0 0 1 .29-.289l4.36-2.2a12.658 12.658 0 0 0 6.93-11.992l-.271-4.92a.653.653 0 0 1 .107-.4l2.682-4.067a12.641 12.641 0 0 0 0-13.934l-2.681-4.067a.653.653 0 0 1 -.108-.4l.271-4.918a12.657 12.657 0 0 0 -6.931-11.993l-4.359-2.2a.656.656 0 0 1 -.29-.29l-2.2-4.36a12.645 12.645 0 0 0 -11.992-6.93l-4.917.27a.631.631 0 0 1 -.4-.107l-4.067-2.682a12.647 12.647 0 0 0 -13.933 0l-4.068 2.682a.671.671 0 0 1 -.4.108l-4.92-.271a12.63 12.63 0 0 0 -11.991 6.93l-2.2 4.361a.659.659 0 0 1 -.29.289l-4.359 2.2a12.657 12.657 0 0 0 -6.931 11.992l.271 4.92a.658.658 0 0 1 -.107.4l-2.682 4.067a12.639 12.639 0 0 0 0 13.933l2.686 4.068a.653.653 0 0 1 .108.4l-.271 4.918a12.658 12.658 0 0 0 6.931 11.993l4.359 2.2a.656.656 0 0 1 .29.29l2.2 4.36a12.616 12.616 0 0 0 3.294 4.091v22.96h-90.737zm-61.166 200.179-9.377-7.253a6 6 0 0 0 -7.342 0l-9.378 7.254v-55.311l1.618-.089a.643.643 0 0 1 .4.107l4.067 2.681a12.645 12.645 0 0 0 13.934 0l4.066-2.682a.644.644 0 0 1 .4-.107l1.617.088zm6.785-71.83-2.2 4.36a.658.658 0 0 1 -.622.36l-4.918-.271a12.713 12.713 0 0 0 -7.663 2.07l-4.067 2.682a.654.654 0 0 1 -.722 0l-4.068-2.682a12.755 12.755 0 0 0 -6.98-2.089q-.34 0-.682.019l-4.919.271a.663.663 0 0 1 -.622-.36l-2.2-4.361a12.733 12.733 0 0 0 -5.589-5.588l-4.359-2.2a.658.658 0 0 1 -.36-.623l.27-4.918a12.737 12.737 0 0 0 -2.07-7.663l-2.682-4.067a.655.655 0 0 1 0-.723l2.681-4.066a12.734 12.734 0 0 0 2.071-7.663l-.27-4.919a.658.658 0 0 1 .36-.622l4.36-2.2a12.581 12.581 0 0 0 5.589-5.59l2.2-4.359a.665.665 0 0 1 .622-.361l4.92.272a12.76 12.76 0 0 0 7.661-2.071l4.066-2.681a.652.652 0 0 1 .722 0l4.068 2.682a12.719 12.719 0 0 0 7.662 2.07l4.919-.271a.656.656 0 0 1 .621.36l2.2 4.36a12.581 12.581 0 0 0 5.591 5.59l4.359 2.2a.658.658 0 0 1 .36.622l-.271 4.92a12.742 12.742 0 0 0 2.071 7.661l2.681 4.067a.655.655 0 0 1 0 .723l-2.681 4.067a12.742 12.742 0 0 0 -2.071 7.663l.271 4.917a.658.658 0 0 1 -.359.623l-4.36 2.2a12.747 12.747 0 0 0 -5.59 5.589zm-160.314-81.328a35.993 35.993 0 0 1 35.952-35.952h130.444a35.993 35.993 0 0 1 35.951 35.952v127.423h-36.818v-32.231a12.647 12.647 0 0 0 3.294-4.093l2.2-4.359a.663.663 0 0 1 .29-.291l4.361-2.2a12.66 12.66 0 0 0 6.929-11.993l-.27-4.917a.658.658 0 0 1 .107-.4l2.682-4.068a12.643 12.643 0 0 0 0-13.933l-2.681-4.067a.654.654 0 0 1 -.109-.4l.271-4.919a12.657 12.657 0 0 0 -6.93-11.992l-4.359-2.2a.66.66 0 0 1 -.291-.291l-2.2-4.359a12.638 12.638 0 0 0 -11.992-6.925l-4.918.271a.641.641 0 0 1 -.4-.108l-4.067-2.682a12.643 12.643 0 0 0 -13.934 0l-4.067 2.682a.664.664 0 0 1 -.4.108l-4.919-.271a12.64 12.64 0 0 0 -11.993 6.93l-2.2 4.36a.656.656 0 0 1 -.29.29l-4.359 2.2a12.657 12.657 0 0 0 -6.931 11.992l.271 4.92a.646.646 0 0 1 -.108.4l-2.682 4.067a12.643 12.643 0 0 0 0 13.933l2.684 4.07a.662.662 0 0 1 .106.4l-.271 4.918a12.657 12.657 0 0 0 6.931 11.993l4.36 2.2a.651.651 0 0 1 .289.289l2.2 4.36a12.633 12.633 0 0 0 3.293 4.092v32.232h-115.426z"/></g></svg>